<mxfile host="app.diagrams.net" modified="2024-05-28T19:32:52.371Z" agent="Mozilla/5.0 (Windows NT 10.0; Win64; x64) AppleWebKit/537.36 (KHTML, like Gecko) Chrome/125.0.0.0 Safari/537.36" etag="V88bhCQrbx7v5qC6kOEs" version="24.4.9" type="device">
  <diagram id="6hGFLwfOUW9BJmU3vGz_" name="Page-1">
    <mxGraphModel dx="772" dy="745" grid="1" gridSize="10" guides="1" tooltips="1" connect="1" arrows="1" fold="1" page="1" pageScale="1" pageWidth="827" pageHeight="1169" math="0" shadow="0">
      <root>
        <mxCell id="0" />
        <mxCell id="1" parent="0" />
        <mxCell id="2" value="" style="group" parent="1" vertex="1" connectable="0">
          <mxGeometry x="60" y="60" width="160" height="120" as="geometry" />
        </mxCell>
        <mxCell id="3" value="IMoney" style="group;strokeColor=default;fillColor=none;rounded=1;" parent="1" vertex="1" connectable="0">
          <mxGeometry x="150" y="20" width="160" height="120" as="geometry" />
        </mxCell>
        <mxCell id="4" value="Money" style="group;strokeColor=default;fillColor=none;rounded=1;" parent="1" vertex="1" connectable="0">
          <mxGeometry x="430" y="30" width="160" height="120" as="geometry" />
        </mxCell>
        <mxCell id="5" value="IProduct" style="group;strokeColor=default;fillColor=none;rounded=1;" parent="1" vertex="1" connectable="0">
          <mxGeometry x="60" y="240" width="160" height="120" as="geometry" />
        </mxCell>
        <mxCell id="6" value="Product" style="group;strokeColor=default;" parent="1" vertex="1" connectable="0">
          <mxGeometry x="320" y="250" width="160" height="120" as="geometry" />
        </mxCell>
        <mxCell id="7" value="IReport" style="group;strokeColor=default;fillColor=none;rounded=1;" parent="1" vertex="1" connectable="0">
          <mxGeometry x="650" y="170" width="160" height="120" as="geometry" />
        </mxCell>
        <mxCell id="8" value="IncomingGoodsReport" style="group;strokeColor=default;fillColor=none;rounded=1;" parent="1" vertex="1" connectable="0">
          <mxGeometry x="60" y="420" width="160" height="120" as="geometry" />
        </mxCell>
        <mxCell id="9" value="InventoryReport" style="group;strokeColor=default;fillColor=none;rounded=1;" parent="1" vertex="1" connectable="0">
          <mxGeometry x="240" y="420" width="160" height="120" as="geometry" />
        </mxCell>
        <mxCell id="10" value="OutgoingGoodsReport" style="group;strokeColor=default;fillColor=none;rounded=1;" parent="1" vertex="1" connectable="0">
          <mxGeometry x="420" y="420" width="160" height="120" as="geometry" />
        </mxCell>
        <mxCell id="11" value="Warehouse" style="group;strokeColor=default;fillColor=none;rounded=1;" parent="1" vertex="1" connectable="0">
          <mxGeometry x="240" y="610" width="160" height="120" as="geometry" />
        </mxCell>
        <mxCell id="12" value="Reporting" style="group;strokeColor=default;fillColor=none;rounded=1;" parent="1" vertex="1" connectable="0">
          <mxGeometry x="650" y="450" width="160" height="120" as="geometry" />
        </mxCell>
        <mxCell id="13" style="edgeStyle=orthogonalEdgeStyle;rounded=0;orthogonalLoop=1;jettySize=auto;html=1;exitX=0.5;exitY=0;exitDx=0;exitDy=0;" parent="1" source="3" edge="1">
          <mxGeometry relative="1" as="geometry">
            <mxPoint x="430" y="50" as="targetPoint" />
            <Array as="points">
              <mxPoint x="310" y="20" />
              <mxPoint x="310" y="50" />
              <mxPoint x="430" y="50" />
            </Array>
          </mxGeometry>
        </mxCell>
        <mxCell id="14" style="edgeStyle=orthogonalEdgeStyle;rounded=0;orthogonalLoop=1;jettySize=auto;html=1;exitX=0.5;exitY=0;exitDx=0;exitDy=0;" parent="1" source="5" target="6" edge="1">
          <mxGeometry relative="1" as="geometry" />
        </mxCell>
        <mxCell id="15" style="edgeStyle=orthogonalEdgeStyle;rounded=0;orthogonalLoop=1;jettySize=auto;html=1;exitX=0.5;exitY=0;exitDx=0;exitDy=0;" parent="1" source="7" target="8" edge="1">
          <mxGeometry relative="1" as="geometry" />
        </mxCell>
        <mxCell id="16" style="edgeStyle=orthogonalEdgeStyle;rounded=0;orthogonalLoop=1;jettySize=auto;html=1;exitX=0.5;exitY=0;exitDx=0;exitDy=0;" parent="1" source="7" target="9" edge="1">
          <mxGeometry relative="1" as="geometry">
            <Array as="points">
              <mxPoint x="590" y="220" />
              <mxPoint x="300" y="220" />
            </Array>
          </mxGeometry>
        </mxCell>
        <mxCell id="17" style="edgeStyle=orthogonalEdgeStyle;rounded=0;orthogonalLoop=1;jettySize=auto;html=1;exitX=0.5;exitY=0;exitDx=0;exitDy=0;" parent="1" source="7" target="10" edge="1">
          <mxGeometry relative="1" as="geometry">
            <Array as="points">
              <mxPoint x="500" y="220" />
              <mxPoint x="680" y="220" />
              <mxPoint x="680" y="390" />
              <mxPoint x="500" y="390" />
            </Array>
          </mxGeometry>
        </mxCell>
        <mxCell id="18" style="edgeStyle=orthogonalEdgeStyle;rounded=0;orthogonalLoop=1;jettySize=auto;html=1;exitX=0.5;exitY=0;exitDx=0;exitDy=0;" parent="1" source="11" target="8" edge="1">
          <mxGeometry relative="1" as="geometry" />
        </mxCell>
        <mxCell id="19" style="edgeStyle=orthogonalEdgeStyle;rounded=0;orthogonalLoop=1;jettySize=auto;html=1;exitX=0.5;exitY=0;exitDx=0;exitDy=0;" parent="1" source="11" target="9" edge="1">
          <mxGeometry relative="1" as="geometry" />
        </mxCell>
        <mxCell id="20" style="edgeStyle=orthogonalEdgeStyle;rounded=0;orthogonalLoop=1;jettySize=auto;html=1;exitX=0.5;exitY=0;exitDx=0;exitDy=0;" parent="1" source="11" target="10" edge="1">
          <mxGeometry relative="1" as="geometry" />
        </mxCell>
        <mxCell id="21" style="edgeStyle=orthogonalEdgeStyle;rounded=0;orthogonalLoop=1;jettySize=auto;html=1;exitX=0.5;exitY=0;exitDx=0;exitDy=0;" parent="1" source="12" target="7" edge="1">
          <mxGeometry relative="1" as="geometry" />
        </mxCell>
        <mxCell id="Tk3JLCJF-pzLoajWypEz-22" value="interface" style="text;html=1;align=center;verticalAlign=middle;resizable=0;points=[];autosize=1;strokeColor=none;fillColor=none;" vertex="1" parent="1">
          <mxGeometry x="195" y="75" width="70" height="30" as="geometry" />
        </mxCell>
        <mxCell id="Tk3JLCJF-pzLoajWypEz-23" value="interface" style="text;html=1;align=center;verticalAlign=middle;resizable=0;points=[];autosize=1;strokeColor=none;fillColor=none;" vertex="1" parent="1">
          <mxGeometry x="105" y="290" width="70" height="30" as="geometry" />
        </mxCell>
        <mxCell id="Tk3JLCJF-pzLoajWypEz-24" value="interface" style="text;html=1;align=center;verticalAlign=middle;resizable=0;points=[];autosize=1;strokeColor=none;fillColor=none;" vertex="1" parent="1">
          <mxGeometry x="695" y="215" width="70" height="30" as="geometry" />
        </mxCell>
        <mxCell id="Tk3JLCJF-pzLoajWypEz-25" value="" style="endArrow=none;html=1;rounded=0;" edge="1" parent="1">
          <mxGeometry width="50" height="50" relative="1" as="geometry">
            <mxPoint x="240" y="450" as="sourcePoint" />
            <mxPoint x="400" y="450" as="targetPoint" />
          </mxGeometry>
        </mxCell>
        <mxCell id="Tk3JLCJF-pzLoajWypEz-26" value="" style="endArrow=none;html=1;rounded=0;" edge="1" parent="1">
          <mxGeometry width="50" height="50" relative="1" as="geometry">
            <mxPoint x="60" y="450" as="sourcePoint" />
            <mxPoint x="220" y="450" as="targetPoint" />
          </mxGeometry>
        </mxCell>
        <mxCell id="Tk3JLCJF-pzLoajWypEz-27" value="" style="endArrow=none;html=1;rounded=0;" edge="1" parent="1">
          <mxGeometry width="50" height="50" relative="1" as="geometry">
            <mxPoint x="420" y="450" as="sourcePoint" />
            <mxPoint x="580" y="450" as="targetPoint" />
          </mxGeometry>
        </mxCell>
        <mxCell id="Tk3JLCJF-pzLoajWypEz-28" value="" style="endArrow=none;html=1;rounded=0;" edge="1" parent="1">
          <mxGeometry width="50" height="50" relative="1" as="geometry">
            <mxPoint x="650" y="479.58" as="sourcePoint" />
            <mxPoint x="810" y="479.58" as="targetPoint" />
          </mxGeometry>
        </mxCell>
        <mxCell id="Tk3JLCJF-pzLoajWypEz-29" value="" style="endArrow=none;html=1;rounded=0;" edge="1" parent="1">
          <mxGeometry width="50" height="50" relative="1" as="geometry">
            <mxPoint x="320" y="280" as="sourcePoint" />
            <mxPoint x="480" y="280" as="targetPoint" />
          </mxGeometry>
        </mxCell>
        <mxCell id="Tk3JLCJF-pzLoajWypEz-30" value="" style="endArrow=none;html=1;rounded=0;" edge="1" parent="1">
          <mxGeometry width="50" height="50" relative="1" as="geometry">
            <mxPoint x="430" y="60" as="sourcePoint" />
            <mxPoint x="590" y="60" as="targetPoint" />
          </mxGeometry>
        </mxCell>
        <mxCell id="Tk3JLCJF-pzLoajWypEz-31" value="" style="endArrow=none;html=1;rounded=0;" edge="1" parent="1">
          <mxGeometry width="50" height="50" relative="1" as="geometry">
            <mxPoint x="150" y="50" as="sourcePoint" />
            <mxPoint x="310" y="50" as="targetPoint" />
          </mxGeometry>
        </mxCell>
        <mxCell id="Tk3JLCJF-pzLoajWypEz-32" value="" style="endArrow=none;html=1;rounded=0;" edge="1" parent="1">
          <mxGeometry width="50" height="50" relative="1" as="geometry">
            <mxPoint x="240" y="640" as="sourcePoint" />
            <mxPoint x="400" y="640" as="targetPoint" />
          </mxGeometry>
        </mxCell>
        <mxCell id="Tk3JLCJF-pzLoajWypEz-33" value="AddProduct" style="text;html=1;align=center;verticalAlign=middle;resizable=0;points=[];autosize=1;strokeColor=none;fillColor=none;" vertex="1" parent="1">
          <mxGeometry x="270" y="648" width="90" height="30" as="geometry" />
        </mxCell>
        <mxCell id="Tk3JLCJF-pzLoajWypEz-34" value="RemoveProduct" style="text;html=1;align=center;verticalAlign=middle;resizable=0;points=[];autosize=1;strokeColor=none;fillColor=none;" vertex="1" parent="1">
          <mxGeometry x="260" y="670" width="110" height="30" as="geometry" />
        </mxCell>
        <mxCell id="Tk3JLCJF-pzLoajWypEz-36" value="GenerateReport" style="text;html=1;align=center;verticalAlign=middle;resizable=0;points=[];autosize=1;strokeColor=none;fillColor=none;" vertex="1" parent="1">
          <mxGeometry x="80" y="458" width="110" height="30" as="geometry" />
        </mxCell>
        <mxCell id="Tk3JLCJF-pzLoajWypEz-37" value="Product" style="text;html=1;align=center;verticalAlign=middle;resizable=0;points=[];autosize=1;strokeColor=none;fillColor=none;" vertex="1" parent="1">
          <mxGeometry x="370" y="300" width="60" height="30" as="geometry" />
        </mxCell>
        <mxCell id="Tk3JLCJF-pzLoajWypEz-38" value="AddReport" style="text;html=1;align=center;verticalAlign=middle;resizable=0;points=[];autosize=1;strokeColor=none;fillColor=none;" vertex="1" parent="1">
          <mxGeometry x="685" y="488" width="80" height="30" as="geometry" />
        </mxCell>
        <mxCell id="Tk3JLCJF-pzLoajWypEz-39" value="GenerateReports" style="text;whiteSpace=wrap;" vertex="1" parent="1">
          <mxGeometry x="680" y="518" width="130" height="40" as="geometry" />
        </mxCell>
        <mxCell id="Tk3JLCJF-pzLoajWypEz-40" value="Display" style="text;whiteSpace=wrap;" vertex="1" parent="1">
          <mxGeometry x="480" y="75" width="70" height="40" as="geometry" />
        </mxCell>
        <mxCell id="Tk3JLCJF-pzLoajWypEz-41" value="Money" style="text;whiteSpace=wrap;" vertex="1" parent="1">
          <mxGeometry x="480" y="105" width="70" height="40" as="geometry" />
        </mxCell>
        <mxCell id="Tk3JLCJF-pzLoajWypEz-42" value="GenerateReport" style="text;html=1;align=center;verticalAlign=middle;resizable=0;points=[];autosize=1;strokeColor=none;fillColor=none;" vertex="1" parent="1">
          <mxGeometry x="445" y="465" width="110" height="30" as="geometry" />
        </mxCell>
        <mxCell id="Tk3JLCJF-pzLoajWypEz-43" value="GenerateReport" style="text;whiteSpace=wrap;" vertex="1" parent="1">
          <mxGeometry x="280" y="465" width="120" height="40" as="geometry" />
        </mxCell>
      </root>
    </mxGraphModel>
  </diagram>
</mxfile>
